<svg xmlns="http://www.w3.org/2000/svg" height="40px" viewBox="0 -960 960 960" width="40px" fill="#75FBFD"><path d="M246.68-169.18Q153.3-265.05 153.3-408q0-60.62 26.72-121.58 26.71-60.95 68.64-118.78 41.92-57.82 93.08-110.63 51.15-52.8 100.38-96.79 8.45-7.47 18.03-10.7 9.57-3.23 19.85-3.23 10.28 0 19.85 3.23 9.58 3.23 18.03 10.7 49.23 43.99 100.38 96.79 51.16 52.81 93.08 110.63 41.93 57.83 68.72 118.78 26.8 60.96 26.8 121.58 0 142.95-93.46 238.82Q619.95-73.3 480-73.3t-233.32-95.88Zm412.94-53.7Q730.94-296.7 730.94-408q0-75.65-63.78-172.16Q603.38-676.67 480-787.83 356.62-676.67 292.84-580.16 229.06-483.65 229.06-408q0 111.3 71.32 185.12Q371.7-149.06 480-149.06q108.3 0 179.62-73.82ZM480-481.04Zm3.56 274.67q15.54-.33 24.76-7.47 9.22-7.14 9.22-19.11 0-12.72-9.35-20.23-9.34-7.51-26.3-7.18-42.94 1-84.64-24.92-41.71-25.93-53.47-89.74-2-9.99-9.9-16.62-7.89-6.64-18.01-6.64-13.2 0-20.67 9.72-7.48 9.73-5.07 21.19 15.67 86.57 73.96 124.45 58.29 37.88 119.47 36.55Z"/></svg>